<?xml version="1.0" encoding="UTF-8"?>
<svg version="1.1" xmlns="http://www.w3.org/2000/svg" width="116" height="115">
<path d="M0 0 C4.70282884 3.57414992 4.70282884 3.57414992 5.40625 6.94921875 C5.61491403 8.96506229 5.80785853 10.98251455 6 13 C6.9214392 15.42304368 6.9214392 15.42304368 9 17 C10.28889574 17.34389192 11.58098869 17.67588794 12.875 18 C15.8632856 19.01623683 16.83139207 19.73739315 18.5625 22.43359375 C25.03476392 37.24660254 25.49302965 52.54935434 20.27734375 67.84375 C14.59867458 81.87544629 4.80320142 93.43712816 -9 100 C-23.33657328 106.07149961 -39.20386931 107.34192729 -54 102 C-69.43544134 95.66396845 -81.15037215 85.31472359 -87.9375 69.875 C-93.52985697 55.00704406 -93.69024057 39.71829574 -87.74609375 24.8671875 C-80.88146484 10.24010355 -70.04209248 -0.86226829 -55 -7 C-54.21753906 -7.3196875 -53.43507812 -7.639375 -52.62890625 -7.96875 C-34.86137224 -13.95593775 -15.41134182 -9.93694262 0 0 Z M-36 2 C-35 5 -35 5 -35 5 Z M-34 2 C-33.34 2.66 -32.68 3.32 -32 4 C-29.77871445 4.02308597 -29.77871445 4.02308597 -27.375 3.625 C-26.55773437 3.51414062 -25.74046875 3.40328125 -24.8984375 3.2890625 C-24.27195312 3.19367187 -23.64546875 3.09828125 -23 3 C-23 2.67 -23 2.34 -23 2 C-26.63 2 -30.26 2 -34 2 Z M-18 3 C-18 3.33 -18 3.66 -18 4 C-16.02 4 -14.04 4 -12 4 C-12 3.67 -12 3.34 -12 3 C-13.98 3 -15.96 3 -18 3 Z M1 25 C1 26.98 1 28.96 1 31 C1.33 31 1.66 31 2 31 C2 29.02 2 27.04 2 25 C1.67 25 1.34 25 1 25 Z M2 31 C3 35 3 35 3 35 Z M3 39 C3 45.6 3 52.2 3 59 C3.33 59 3.66 59 4 59 C4 52.4 4 45.8 4 39 C3.67 39 3.34 39 3 39 Z M2 59 C1.82984375 59.7734375 1.6596875 60.546875 1.484375 61.34375 C-1.02125666 72.112635 -3.67613647 79.51455157 -13 86 C-15.91643652 87.63381522 -18.84931931 88.89029123 -22 90 C-22.63550781 90.22558594 -23.27101563 90.45117188 -23.92578125 90.68359375 C-29.85737283 92.4642993 -35.86175525 92.18414734 -42 92 C-42 92.33 -42 92.66 -42 93 C-29.89928606 95.48219773 -19.67719289 93.38192743 -9.2578125 86.71875 C-2.41596009 81.51041945 0.88516382 74.19195166 3 66 C3.26353649 63.5431598 3.21974693 61.47215296 3 59 C2.67 59 2.34 59 2 59 Z M-50 82 C-49 84 -49 84 -49 84 Z M-49 84 C-48.45276317 87.37462715 -47.9451 89.08235 -46 92 C-45.01 91.67 -44.02 91.34 -43 91 C-43.99 90.67 -44.98 90.34 -46 90 C-47.1875 86.9375 -47.1875 86.9375 -48 84 C-48.33 84 -48.66 84 -49 84 Z " fill="#D6CED3" transform="translate(92,10)"/>
<path d="M0 0 C0.99 0.33 1.98 0.66 3 1 C5.84706121 0.88611755 8.6616198 0.72271097 11.5 0.5 C19.59459459 -0.13513514 19.59459459 -0.13513514 23 1 C24.3921875 1.185625 24.3921875 1.185625 25.8125 1.375 C34.22986278 3.02546329 39.02179349 8.36239131 44 15 C44 15.33 44 15.66 44 16 C41.69 16.66 39.38 17.32 37 18 C36.94608007 19.79133978 36.90724429 21.58313899 36.875 23.375 C36.85179687 24.37273438 36.82859375 25.37046875 36.8046875 26.3984375 C36.72783152 29.16262173 36.72783152 29.16262173 39 31 C39.31073841 35.11800996 38.99204436 39.25229777 38.8125 43.375 C38.78091797 44.50550781 38.74933594 45.63601562 38.71679688 46.80078125 C38.21670727 59.45522245 36.3334973 72.24230864 26.8125 81.25 C16.06332922 90.23701164 4.56522843 91.34294117 -9 91 C-9 90.34 -9 89.68 -9 89 C-9.433125 88.566875 -9.86625 88.13375 -10.3125 87.6875 C-12.83659323 85.16340677 -14.41253042 82.17493916 -16 79 C-14.98679688 79.04640625 -13.97359375 79.0928125 -12.9296875 79.140625 C-11.57815468 79.17816758 -10.22658972 79.21456506 -8.875 79.25 C-8.20984375 79.28351563 -7.5446875 79.31703125 -6.859375 79.3515625 C-1.73085405 79.45212173 1.0675566 78.22723319 5 75 C6.3108889 72.37822221 6.16083707 70.38475366 6.20532227 67.44873047 C6.22526749 66.28767792 6.24521271 65.12662537 6.26576233 63.9303894 C6.28247482 62.67203278 6.29918732 61.41367615 6.31640625 60.1171875 C6.33718735 58.83264679 6.35796844 57.54810608 6.37937927 56.22463989 C6.43459049 52.80850641 6.48400388 49.39231255 6.53222656 45.97607422 C6.58244857 42.49050519 6.63813097 39.00502391 6.69335938 35.51953125 C6.8009293 28.67976195 6.9018723 21.83991122 7 15 C3.37 15 -0.26 15 -4 15 C-3.16455696 3.16455696 -3.16455696 3.16455696 0 0 Z " fill="#EB562D" transform="translate(57,12)"/>
<path d="M0 0 C0.85207031 -0.01675781 1.70414063 -0.03351562 2.58203125 -0.05078125 C5.88646673 0.40995713 7.58775956 1.20588836 10.1875 3.3125 C17.28968464 17.30165157 17.72331771 33.48506832 13.1875 48.3125 C9.48033812 57.81084989 4.48774823 65.23506006 -2.8125 72.3125 C-3.37582031 72.88484375 -3.93914062 73.4571875 -4.51953125 74.046875 C-15.81830387 84.71335621 -31.04301927 87.97095333 -46.07421875 87.55078125 C-50.5449759 87.26581136 -54.51230134 86.54112819 -58.8125 85.3125 C-59.1425 83.0025 -59.4725 80.6925 -59.8125 78.3125 C-56.8125 77.3125 -56.8125 77.3125 -53.875 78.6875 C-52.864375 79.22375 -51.85375 79.76 -50.8125 80.3125 C-40.29935723 83.75606737 -28.63671789 80.99028766 -18.9765625 76.42578125 C-10.2099344 71.91587329 -5.66038275 65.61649973 -2.3125 56.3125 C-0.8125 53.3125 -0.8125 53.3125 2.28125 52.125 C3.2403125 51.856875 4.199375 51.58875 5.1875 51.3125 C5.26828641 49.18811661 5.32659141 47.0628677 5.375 44.9375 C5.40980469 43.75414062 5.44460937 42.57078125 5.48046875 41.3515625 C5.38378906 40.34867188 5.28710938 39.34578125 5.1875 38.3125 C4.1975 37.6525 3.2075 36.9925 2.1875 36.3125 C1.69506836 33.93334961 1.69506836 33.93334961 1.52734375 30.96484375 C1.45580078 29.88396484 1.38425781 28.80308594 1.31054688 27.68945312 C1.24931641 26.55443359 1.18808594 25.41941406 1.125 24.25 C0.68278273 16.72354961 0.05376471 9.63042595 -1.8125 2.3125 C-1.70421875 3.32957031 -1.70421875 3.32957031 -1.59375 4.3671875 C-0.96136291 10.70862473 -0.68811778 16.94136647 -0.8125 23.3125 C-1.1425 23.3125 -1.4725 23.3125 -1.8125 23.3125 C-2.1425 29.2525 -2.4725 35.1925 -2.8125 41.3125 C-3.1425 41.3125 -3.4725 41.3125 -3.8125 41.3125 C-3.83755615 40.53535645 -3.8626123 39.75821289 -3.88842773 38.95751953 C-4.00416796 35.45066931 -4.12699352 31.94410255 -4.25 28.4375 C-4.28931641 27.21417969 -4.32863281 25.99085937 -4.36914062 24.73046875 C-4.41103516 23.56386719 -4.45292969 22.39726563 -4.49609375 21.1953125 C-4.55108032 19.57713623 -4.55108032 19.57713623 -4.60717773 17.92626953 C-4.64626643 15.33180464 -4.64626643 15.33180464 -5.8125 13.3125 C-6.09153464 11.48609146 -6.31376229 9.65069041 -6.5 7.8125 C-6.60699219 6.8328125 -6.71398437 5.853125 -6.82421875 4.84375 C-6.80209814 0.06569826 -4.06230363 0.01827123 0 0 Z " fill="#C6BCC2" transform="translate(99.8125,27.6875)"/>
<path d="M0 0 C0.66 0.33 1.32 0.66 2 1 C2.66615243 3.51793397 3.18603097 5.93995505 3.625 8.5 C3.75688721 9.25015381 3.88877441 10.00030762 4.0246582 10.77319336 C5.32468922 18.85489875 5.27571809 26.84078684 5 35 C6.32 35.66 7.64 36.32 9 37 C9.0272415 38.41655793 9.04650467 39.83327045 9.0625 41.25 C9.07410156 42.03890625 9.08570312 42.8278125 9.09765625 43.640625 C9.00130042 45.96858185 8.81626259 47.81708062 8 50 C5 52 5 52 2 52 C1.85304687 52.54527344 1.70609375 53.09054688 1.5546875 53.65234375 C-1.67939264 64.52554421 -7.11223071 71.36733886 -17 77 C-27.47795795 82.03534375 -40.20554564 82.77924865 -51.1953125 79.046875 C-55.20135773 76.72302192 -56.47796114 73.16278326 -57.6875 68.875 C-57.93886719 68.00617188 -58.19023438 67.13734375 -58.44921875 66.2421875 C-59 64 -59 64 -59 62 C-58.01 62 -57.02 62 -56 62 C-55.75507812 62.69867188 -55.51015625 63.39734375 -55.2578125 64.1171875 C-53.1366743 69.57020963 -53.1366743 69.57020963 -48.7578125 73.109375 C-46.14244691 73.64711372 -43.66696344 73.89220357 -41 74 C-40.24203125 74.06574219 -39.4840625 74.13148437 -38.703125 74.19921875 C-28.97200238 74.69957789 -19.57252812 71.00309224 -12 65 C-5.65223053 57.90386192 -2.98997849 49.30579779 -2 40 C-1.34 40 -0.68 40 0 40 C0 33.4 0 26.8 0 20 C0.33 20 0.66 20 1 20 C1.12920865 13.28115045 0.62422779 6.68815484 0 0 Z M7 37 C8 39 8 39 8 39 Z " fill="#F4ECED" transform="translate(97,29)"/>
<path d="M0 0 C0.99 0.33 1.98 0.66 3 1 C5.84706121 0.88611755 8.6616198 0.72271097 11.5 0.5 C19.59459459 -0.13513514 19.59459459 -0.13513514 23 1 C24.3921875 1.185625 24.3921875 1.185625 25.8125 1.375 C34.22986278 3.02546329 39.02179349 8.36239131 44 15 C44 15.33 44 15.66 44 16 C42.865625 16.28875 41.73125 16.5775 40.5625 16.875 C39.386875 17.24625 38.21125 17.6175 37 18 C36.67 18.66 36.34 19.32 36 20 C35.34 20 34.68 20 34 20 C34.495 21.485 34.495 21.485 35 23 C35.29257143 32.216 35.29257143 32.216 34 35 C31.4375 37.25 31.4375 37.25 29 39 C29.33 36.36 29.66 33.72 30 31 C28.35 30.67 26.7 30.34 25 30 C25.33 25.38 25.66 20.76 26 16 C24.948125 15.855625 23.89625 15.71125 22.8125 15.5625 C19 15 19 15 16.375 14.375 C14.01086805 13.85253176 14.01086805 13.85253176 11.74609375 14.50390625 C8.57741516 15.07634179 5.88705137 14.87893915 2.6875 14.5625 C1.61886719 14.46066406 0.55023438 14.35882813 -0.55078125 14.25390625 C-1.35902344 14.17011719 -2.16726562 14.08632813 -3 14 C-3.05416188 12.39620659 -3.09286638 10.79188594 -3.125 9.1875 C-3.14820313 8.29417969 -3.17140625 7.40085937 -3.1953125 6.48046875 C-2.96995036 3.61836958 -2.05373066 2.05373066 0 0 Z " fill="#F16C2D" transform="translate(57,12)"/>
<path d="M0 0 C1.5 1.3125 1.5 1.3125 3 3 C3 3.99 3 4.98 3 6 C6.3048979 7.07868195 8.61763479 6.90419019 12 6.1875 C12.845625 6.01605469 13.69125 5.84460938 14.5625 5.66796875 C16.9147832 5.02335268 18.8673002 4.17002281 21 3 C21 3.66 21 4.32 21 5 C21.66 5 22.32 5 23 5 C25 8 25 8 26 10 C19.44087383 19.90299441 12.33246202 25.38222075 0.73046875 28.35546875 C-5.2071697 29.38134346 -10.98296296 29.32919959 -17 29 C-17 28.34 -17 27.68 -17 27 C-17.433125 26.566875 -17.86625 26.13375 -18.3125 25.6875 C-20.83659323 23.16340677 -22.41253042 20.17493916 -24 17 C-22.48019531 17.06960937 -22.48019531 17.06960937 -20.9296875 17.140625 C-19.57815468 17.17816758 -18.22658972 17.21456506 -16.875 17.25 C-16.20984375 17.28351563 -15.5446875 17.31703125 -14.859375 17.3515625 C-9.72661417 17.45220487 -6.93516265 16.22885141 -3 13 C-0.65448504 8.97911721 -0.46381141 4.56081222 0 0 Z " fill="#A61B38" transform="translate(65,74)"/>
<path d="M0 0 C0.33 0 0.66 0 1 0 C1 1.65 1 3.3 1 5 C9.6938767 5.22439456 9.6938767 5.22439456 18.3125 4.3125 C23.06892825 3.90941286 25.67697846 5.07007967 30 7 C30.02694851 8.95825873 30.04637218 10.91662226 30.0625 12.875 C30.07410156 13.96554688 30.08570312 15.05609375 30.09765625 16.1796875 C30 19 30 19 29 21 C29.66 21 30.32 21 31 21 C31.33 20.01 31.66 19.02 32 18 C31.88521556 22.78964168 31.72849816 26.04890518 28.75 29.9375 C23.34310656 33.99267008 20.06513363 34.1168583 13 35 C12.67 43.58 12.34 52.16 12 61 C11.67 61 11.34 61 11 61 C11 42.85 11 24.7 11 6 C7.37 6 3.74 6 0 6 C0 4.02 0 2.04 0 0 Z " fill="#F59648" transform="translate(53,21)"/>
<path d="M0 0 C0.33 0 0.66 0 1 0 C0.42719864 19.10292542 -5.17832681 34.31804179 -19.17578125 47.58984375 C-29.99034566 56.81887036 -42.66624882 61.20097262 -56.8125 61.1875 C-57.864375 61.1884668 -57.864375 61.1884668 -58.9375 61.18945312 C-64.24742613 61.13547051 -68.91088689 60.45403232 -74 59 C-74.33 56.69 -74.66 54.38 -75 52 C-72 51 -72 51 -69.0625 52.375 C-68.051875 52.91125 -67.04125 53.4475 -66 54 C-55.48815793 57.44314133 -43.81703066 54.68106854 -34.16015625 50.109375 C-26.94446981 46.40366985 -23.57560972 42.32433995 -19.48046875 35.23046875 C-18.99191406 34.49441406 -18.50335938 33.75835937 -18 33 C-17.34 33 -16.68 33 -16 33 C-16 32.34 -16 31.68 -16 31 C-15.071875 30.896875 -14.14375 30.79375 -13.1875 30.6875 C-9.87447328 29.35191056 -9.87447328 29.35191056 -8.96875 26.69921875 C-7.75307312 22.30454684 -6.94106403 17.97296977 -6.5 13.4375 C-6.335 12.303125 -6.17 11.16875 -6 10 C-5.01 9.34 -4.02 8.68 -3 8 C-2.67 7.01 -2.34 6.02 -2 5 C-1.34 5 -0.68 5 0 5 C0 3.35 0 1.7 0 0 Z " fill="#A89BA3" transform="translate(115,54)"/>
<path d="M0 0 C0.33 0 0.66 0 1 0 C1.33 1.98 1.66 3.96 2 6 C3.175625 5.87625 4.35125 5.7525 5.5625 5.625 C10.07456348 5.63305726 12.56713472 7.12163551 15.77734375 10.21484375 C17 12 17 12 17.125 15.625 C15.30769231 21.07692308 15.30769231 21.07692308 13 23 C8.94329236 23.3687916 5.96249762 22.99062441 2 22 C1.67 32.89 1.34 43.78 1 55 C0.67 55 0.34 55 0 55 C0 36.85 0 18.7 0 0 Z " fill="#FABF82" transform="translate(64,27)"/>
<path d="M0 0 C2 3 2 3 2 5 C2.83144531 4.96519531 3.66289063 4.93039063 4.51953125 4.89453125 C6.14955078 4.85392578 6.14955078 4.85392578 7.8125 4.8125 C8.89144531 4.77769531 9.97039062 4.74289063 11.08203125 4.70703125 C14 5 14 5 15.88671875 6.51171875 C16.25410156 7.00285156 16.62148437 7.49398437 17 8 C8.58492883 13.78536143 -0.16706874 13.24858534 -10 13 C-10 12.34 -10 11.68 -10 11 C-10.433125 10.566875 -10.86625 10.13375 -11.3125 9.6875 C-13.83659323 7.16340677 -15.41253042 4.17493916 -17 1 C-15.41058594 1.01740234 -15.41058594 1.01740234 -13.7890625 1.03515625 C-12.40104342 1.04453476 -11.01302245 1.05363489 -9.625 1.0625 C-8.57699219 1.07506836 -8.57699219 1.07506836 -7.5078125 1.08789062 C-3.62704624 1.1835442 -3.62704624 1.1835442 0 0 Z " fill="#AD2F3F" transform="translate(58,90)"/>
<path d="M0 0 C0.57234375 0.36609375 1.1446875 0.7321875 1.734375 1.109375 C0.744375 1.439375 -0.245625 1.769375 -1.265625 2.109375 C-1.38550781 2.74488281 -1.50539062 3.38039063 -1.62890625 4.03515625 C-2.265625 6.109375 -2.265625 6.109375 -4.55859375 7.33984375 C-5.51378906 7.65566406 -6.46898437 7.97148438 -7.453125 8.296875 C-8.39542969 8.62042969 -9.33773437 8.94398437 -10.30859375 9.27734375 C-15.90251232 10.85132612 -21.28525526 11.30239202 -27.078125 11.296875 C-28.13 11.2978418 -28.13 11.2978418 -29.203125 11.29882812 C-34.51305113 11.24484551 -39.17651189 10.56340732 -44.265625 9.109375 C-44.595625 6.799375 -44.925625 4.489375 -45.265625 2.109375 C-42.265625 1.109375 -42.265625 1.109375 -39.328125 2.484375 C-37.8121875 3.28875 -37.8121875 3.28875 -36.265625 4.109375 C-26.48165696 7.31410206 -15.51547916 5.18398025 -6.515625 0.859375 C-5.79890625 0.48296875 -5.0821875 0.1065625 -4.34375 -0.28125 C-2.265625 -0.890625 -2.265625 -0.890625 0 0 Z " fill="#BFB6BB" transform="translate(85.265625,103.890625)"/>
<path d="M0 0 C30.22014575 -0.80045211 30.22014575 -0.80045211 38.8515625 4.875 C41 7 41 7 41.3125 10.75 C41.209375 11.8225 41.10625 12.895 41 14 C38 13 38 13 35.625 10.5625 C28.69118881 3.79377955 18.62351678 4.8608616 9.5625 4.9375 C8.54478516 4.94201172 7.52707031 4.94652344 6.47851562 4.95117188 C3.98561491 4.96287563 1.49283926 4.97927152 -1 5 C-0.67 3.35 -0.34 1.7 0 0 Z " fill="#A68E96" transform="translate(56,8)"/>
<path d="M0 0 C1.5 1.3125 1.5 1.3125 3 3 C3 3.99 3 4.98 3 6 C6.3048979 7.07868195 8.61763479 6.90419019 12 6.1875 C13.2684375 5.93033203 13.2684375 5.93033203 14.5625 5.66796875 C16.9147832 5.02335268 18.8673002 4.17002281 21 3 C21 3.66 21 4.32 21 5 C21.66 5 22.32 5 23 5 C25 8 25 8 26 10 C25.360625 10.12375 24.72125 10.2475 24.0625 10.375 C23.381875 10.58125 22.70125 10.7875 22 11 C21.67 11.66 21.34 12.32 21 13 C21 11.68 21 10.36 21 9 C17.81765895 10.75454385 17.81765895 10.75454385 15 13 C12.30345146 13.07319621 9.63308542 13.09242537 6.9375 13.0625 C5.79958008 13.05573242 5.79958008 13.05573242 4.63867188 13.04882812 C2.75908129 13.0370068 0.87953101 13.01907078 -1 13 C-2.40742022 10.18515955 -1.66652164 8.43063887 -1.0625 5.375 C-0.86785156 4.37210937 -0.67320313 3.36921875 -0.47265625 2.3359375 C-0.31667969 1.56507812 -0.16070312 0.79421875 0 0 Z " fill="#C6293B" transform="translate(65,74)"/>
<path d="M0 0 C0.66 0.33 1.32 0.66 2 1 C1.32453125 1.75023437 0.6490625 2.50046875 -0.046875 3.2734375 C-8.79773741 13.21789661 -14 23.41282396 -14 37 C-14.99 37.495 -14.99 37.495 -16 38 C-16 38.66 -16 39.32 -16 40 C-15.175 40.433125 -14.35 40.86625 -13.5 41.3125 C-12.675 41.869375 -11.85 42.42625 -11 43 C-10.6875 45.6875 -10.6875 45.6875 -11 48 C-11.268125 47.360625 -11.53625 46.72125 -11.8125 46.0625 C-12.88667752 43.66868314 -12.88667752 43.66868314 -16 43 C-16 48.61 -16 54.22 -16 60 C-21.48215669 49.03568662 -19.66622036 35.31686133 -16 24 C-12.32471492 14.81751203 -6.99097112 6.99097112 0 0 Z " fill="#ADA3AA" transform="translate(19,14)"/>
<path d="M0 0 C0.33 0 0.66 0 1 0 C1 1.65 1 3.3 1 5 C9.6938767 5.22439456 9.6938767 5.22439456 18.3125 4.3125 C23.06892825 3.90941286 25.67697846 5.07007967 30 7 C30 10.96 30 14.92 30 19 C29.67 19 29.34 19 29 19 C29 17.02 29 15.04 29 13 C26.525 12.505 26.525 12.505 24 12 C24 11.34 24 10.68 24 10 C20.04 10 16.08 10 12 10 C12 8.68 12 7.36 12 6 C8.04 6 4.08 6 0 6 C0 4.02 0 2.04 0 0 Z " fill="#EB8641" transform="translate(53,21)"/>
<path d="M0 0 C0.33 0 0.66 0 1 0 C0.53004086 7.29246943 -0.55536926 12.25724356 -5.5625 17.875 C-9.07658468 20.63669879 -12.50583851 20.44370939 -16.828125 20.2734375 C-19 20 -19 20 -21 19 C-20.505 17.515 -20.505 17.515 -20 16 C-18.109375 15.33984375 -18.109375 15.33984375 -15.75 14.9375 C-14.93660156 14.7725 -14.12320313 14.6075 -13.28515625 14.4375 C-12.53105469 14.293125 -11.77695313 14.14875 -11 14 C-8.15920854 13.61446793 -8.15920854 13.61446793 -6 12 C-4.77511464 9.78150134 -3.80926169 7.55413551 -2.89453125 5.19140625 C-2 3 -2 3 0 0 Z " fill="#F38133" transform="translate(87,39)"/>
<path d="M0 0 C0.66 0 1.32 0 2 0 C2.66 1.32 3.32 2.64 4 4 C3.34 4 2.68 4 2 4 C2.34786708 5.97536745 2.34786708 5.97536745 3 8 C3.66 8.33 4.32 8.66 5 9 C5.33 8.01 5.66 7.02 6 6 C8 9 8 9 8.375 12.5 C8.65102205 16.05857821 8.65102205 16.05857821 11.0625 17.9375 C11.701875 18.288125 12.34125 18.63875 13 19 C12.67 20.32 12.34 21.64 12 23 C12 22.34 12 21.68 12 21 C11.27554687 21.10699219 10.55109375 21.21398437 9.8046875 21.32421875 C5.74599675 20.85503862 4.64419993 18.93878582 2.125 15.8125 C1.32320312 14.84957031 0.52140625 13.88664062 -0.3046875 12.89453125 C-2 10 -2 10 -1.79296875 7.3125 C-1.53128906 6.549375 -1.26960937 5.78625 -1 5 C-0.814375 4.071875 -0.62875 3.14375 -0.4375 2.1875 C-0.293125 1.465625 -0.14875 0.74375 0 0 Z " fill="#C6BDC3" transform="translate(11,79)"/>
<path d="M0 0 C2.3675832 0.99285747 3.51862996 1.64685625 4.9375 3.8125 C4.71419287 7.45984979 4.55377165 9.19622835 1.9375 11.8125 C-1.6875 11.9375 -1.6875 11.9375 -5.0625 11.8125 C-6.66975635 8.59798731 -6.11998185 5.37637464 -6.0625 1.8125 C-3.8753711 0.48460031 -2.58529544 -0.23502686 0 0 Z " fill="#FCC97A" transform="translate(72.0625,35.1875)"/>
<path d="M0 0 C0.66 0.33 1.32 0.66 2 1 C3.92341015 8.20685159 4.29545979 15.58067632 4 23 C3.67 23 3.34 23 3 23 C2.67 28.94 2.34 34.88 2 41 C1.67 41 1.34 41 1 41 C0.97494385 40.22285645 0.9498877 39.44571289 0.92407227 38.64501953 C0.80833204 35.13816931 0.68550648 31.63160255 0.5625 28.125 C0.52318359 26.90167969 0.48386719 25.67835937 0.44335938 24.41796875 C0.40146484 23.25136719 0.35957031 22.08476563 0.31640625 20.8828125 C0.27974854 19.80402832 0.24309082 18.72524414 0.20532227 17.61376953 C0.16623357 15.01930464 0.16623357 15.01930464 -1 13 C-1.27903464 11.17359146 -1.50126229 9.33819041 -1.6875 7.5 C-1.79449219 6.5203125 -1.90148437 5.540625 -2.01171875 4.53125 C-2 2 -2 2 0 0 Z " fill="#C5A8AC" transform="translate(95,28)"/>
<path d="M0 0 C0.99 0.495 0.99 0.495 2 1 C4.3655183 8.46110397 4.15686413 15.6190996 3.83349609 23.38647461 C3.74919451 25.45728622 3.68793654 27.5279388 3.62890625 29.59960938 C3.25866055 39.74133945 3.25866055 39.74133945 1 42 C-0.17402193 34.66236293 -0.09377123 27.41834582 0 20 C0.33 20 0.66 20 1 20 C1.12920865 13.28115045 0.62422779 6.68815484 0 0 Z " fill="#E9E1E6" transform="translate(97,29)"/>
<path d="M0 0 C4.29 0.33 8.58 0.66 13 1 C11.68 1.99 10.36 2.98 9 4 C13.64144669 5.76054874 18.27775484 7.46527032 23 9 C23 9.33 23 9.66 23 10 C20.75006641 10.02707139 18.50003905 10.04642829 16.25 10.0625 C14.99703125 10.07410156 13.7440625 10.08570312 12.453125 10.09765625 C7.25099758 9.95053726 7.25099758 9.95053726 5 9 C2.86493707 6.29558696 1.53814601 3.07629201 0 0 Z " fill="#CC5A4C" transform="translate(41,91)"/>
<path d="M0 0 C1.32 0.66 2.64 1.32 4 2 C3.01 2.33 2.02 2.66 1 3 C0.88011719 3.63421875 0.76023437 4.2684375 0.63671875 4.921875 C0 7 0 7 -2.29296875 8.265625 C-11.94140625 11.546875 -11.94140625 11.546875 -17 11 C-16.67 10.34 -16.34 9.68 -16 9 C-15.34 9 -14.68 9 -14 9 C-13.67 8.01 -13.34 7.02 -13 6 C-10.3125 4.6484375 -10.3125 4.6484375 -7 3.375 C-3.22551954 2.14328989 -3.22551954 2.14328989 0 0 Z " fill="#B6ADB3" transform="translate(83,103)"/>
<path d="M0 0 C1.98 0.495 1.98 0.495 4 1 C4.77852544 4.8061244 4.92762036 7.28951857 4 11 C3.93375493 12.74886981 3.91447405 14.50002748 3.9375 16.25 C3.95103516 17.58804688 3.95103516 17.58804688 3.96484375 18.953125 C3.97644531 19.62859375 3.98804688 20.3040625 4 21 C3.01 21.33 2.02 21.66 1 22 C-2.16960691 15.66078617 -1.17580213 6.79352343 0 0 Z " fill="#C0B5BB" transform="translate(3,57)"/>
<path d="M0 0 C0.33 0 0.66 0 1 0 C1 5.61 1 11.22 1 17 C2.32 17.66 3.64 18.32 5 19 C5.0272415 20.41655793 5.04650467 21.83327045 5.0625 23.25 C5.07410156 24.03890625 5.08570312 24.8278125 5.09765625 25.640625 C5.00130042 27.96858185 4.81626259 29.81708062 4 32 C1 34 1 34 -2 34 C-1.67 32.68 -1.34 31.36 -1 30 C0.32 30 1.64 30 3 30 C2.67 28.02 2.34 26.04 2 24 C1.34 24 0.68 24 0 24 C0 16.08 0 8.16 0 0 Z M3 19 C4 21 4 21 4 21 Z " fill="#E0D9DE" transform="translate(101,47)"/>
<path d="M0 0 C0.99 0.33 1.98 0.66 3 1 C5.84706121 0.88611755 8.6616198 0.72271097 11.5 0.5 C19.59459459 -0.13513514 19.59459459 -0.13513514 23 1 C24.03125 1.144375 25.0625 1.28875 26.125 1.4375 C27.07375 1.623125 28.0225 1.80875 29 2 C29.33 2.66 29.66 3.32 30 4 C19.94389808 4.14141393 10.02437685 3.72904559 0 3 C0 2.01 0 1.02 0 0 Z " fill="#8E2015" transform="translate(57,12)"/>
<path d="M0 0 C1.62463842 -0.05395478 3.24978541 -0.09277195 4.875 -0.125 C6.23238281 -0.15980469 6.23238281 -0.15980469 7.6171875 -0.1953125 C10 0 10 0 12 2 C12 2.99 12 3.98 12 5 C4.66258031 7.3479743 -2.34393782 7.19355213 -10 7 C-10 6.01 -10 5.02 -10 4 C-5.71 4 -1.42 4 3 4 C3 3.34 3 2.68 3 2 C2.01 1.34 1.02 0.68 0 0 Z " fill="#9F2D30" transform="translate(58,96)"/>
<path d="M0 0 C0 0.66 0 1.32 0 2 C1.65 2.33 3.3 2.66 5 3 C5 6.3 5 9.6 5 13 C4.67 13 4.34 13 4 13 C3.6596875 11.63875 3.6596875 11.63875 3.3125 10.25 C1.75144507 6.38453066 0.58238859 5.10270635 -3 3 C-5.70264033 2.40331317 -8.22301265 2.18827033 -11 2 C-11.33 2.66 -11.66 3.32 -12 4 C-12 2.68 -12 1.36 -12 0 C-7.74433453 -1.16063604 -4.3164922 -0.76173392 0 0 Z " fill="#F6A757" transform="translate(77,31)"/>
<path d="M0 0 C0.33 0 0.66 0 1 0 C1.05394705 2.60444348 1.09364469 5.20776998 1.125 7.8125 C1.14175781 8.55048828 1.15851563 9.28847656 1.17578125 10.04882812 C1.21074628 13.91246426 1.19397555 15.70903668 -1 19 C-1.66 19 -2.32 19 -3 19 C-3.55353075 5.18223235 -3.55353075 5.18223235 0 0 Z " fill="#EB8C74" transform="translate(93,59)"/>
<path d="M0 0 C0.33 0 0.66 0 1 0 C0.63099093 8.71624869 -0.30202781 16.68549452 -3 25 C-5.59436289 21.10845566 -4.9206412 19.5407455 -4.1875 15 C-3.99542969 13.7625 -3.80335937 12.525 -3.60546875 11.25 C-3 8 -3 8 -2 5 C-1.34 5 -0.68 5 0 5 C0 3.35 0 1.7 0 0 Z " fill="#9E9298" transform="translate(115,54)"/>
<path d="M0 0 C0.33 0.66 0.66 1.32 1 2 C6.61 2 12.22 2 18 2 C18 2.33 18 2.66 18 3 C17.25234375 3.03738281 16.5046875 3.07476563 15.734375 3.11328125 C14.74953125 3.17902344 13.7646875 3.24476562 12.75 3.3125 C11.77546875 3.37050781 10.8009375 3.42851562 9.796875 3.48828125 C6.68126711 4.05831565 5.28300492 4.83929892 3 7 C1.24927285 10.08333587 1.24927285 10.08333587 0 13 C-0.33 13 -0.66 13 -1 13 C-1.02708567 11.39592672 -1.04643483 9.7917215 -1.0625 8.1875 C-1.07410156 7.29417969 -1.08570313 6.40085937 -1.09765625 5.48046875 C-1 3 -1 3 0 0 Z " fill="#CC4C2F" transform="translate(55,13)"/>
<path d="M0 0 C1.57912859 3.15825718 0.20884084 5.49477174 -0.75 8.8125 C-1.09546875 10.03582031 -1.4409375 11.25914063 -1.796875 12.51953125 C-2.89290556 15.69019109 -4.15407606 18.21520095 -6 21 C-6.99 20.67 -7.98 20.34 -9 20 C-8.34 20 -7.68 20 -7 20 C-5.14897283 13.66692592 -3.62031591 7.57534861 -3 1 C-2.01 0.67 -1.02 0.34 0 0 Z M-11 21 C-9 22 -9 22 -9 22 Z " fill="#B3A6AD" transform="translate(112,63)"/>
<path d="M0 0 C1.3293457 0.00483398 1.3293457 0.00483398 2.68554688 0.00976562 C4.05356445 0.02233398 4.05356445 0.02233398 5.44921875 0.03515625 C6.38056641 0.03966797 7.31191406 0.04417969 8.27148438 0.04882812 C10.55996248 0.06056391 12.84830683 0.07698262 15.13671875 0.09765625 C15.13671875 0.42765625 15.13671875 0.75765625 15.13671875 1.09765625 C11.38868197 2.37198876 8.83131871 3.21787547 4.88671875 2.53515625 C3.52546875 2.31859375 3.52546875 2.31859375 2.13671875 2.09765625 C0.23713794 3.41083887 0.23713794 3.41083887 -0.86328125 5.09765625 C-1.19328125 4.43765625 -1.52328125 3.77765625 -1.86328125 3.09765625 C-3.75861467 2.63242562 -3.75861467 2.63242562 -5.92578125 2.47265625 C-7.22515625 2.34890625 -8.52453125 2.22515625 -9.86328125 2.09765625 C-9.86328125 1.76765625 -9.86328125 1.43765625 -9.86328125 1.09765625 C-6.51236354 0.34402573 -3.43218313 -0.02214312 0 0 Z " fill="#B3ACB1" transform="translate(52.86328125,-0.09765625)"/>
<path d="M0 0 C0.33 0 0.66 0 1 0 C1.25227482 3.53184755 1.2202623 5.587594 -0.46875 8.75 C-2.21742401 12.46147137 -2.49500165 15.29403508 -2.6875 19.375 C-2.78611328 21.24285156 -2.78611328 21.24285156 -2.88671875 23.1484375 C-2.92410156 24.08945313 -2.96148437 25.03046875 -3 26 C-3.66 25.67 -4.32 25.34 -5 25 C-5.02698422 22.56242587 -5.04683099 20.12515085 -5.0625 17.6875 C-5.07087891 16.99720703 -5.07925781 16.30691406 -5.08789062 15.59570312 C-5.10307906 12.4516975 -5.00193327 10.00579981 -4 7 C-3.01 6.34 -2.02 5.68 -1 5 C-0.27034634 2.43717258 -0.27034634 2.43717258 0 0 Z " fill="#EF6A49" transform="translate(93,53)"/>
<path d="M0 0 C0 2.31 0 4.62 0 7 C-2.31 7.33 -4.62 7.66 -7 8 C-7.1875 5.125 -7.1875 5.125 -7 2 C-4 0 -4 0 0 0 Z " fill="#FDDA88" transform="translate(75,37)"/>
<path d="M0 0 C0.33 1.32 0.66 2.64 1 4 C-4.62256097 8.58682606 -6.88832156 9.11470449 -14 9 C-14.33 7.02 -14.66 5.04 -15 3 C-14.67 3.66 -14.34 4.32 -14 5 C-10.29212965 5.28328381 -6.69681924 5.46346554 -3 5 C-0.69512279 2.69682467 -0.69512279 2.69682467 0 0 Z " fill="#F8A353" transform="translate(80,44)"/>
<path d="M0 0 C0.66 0.33 1.32 0.66 2 1 C1.31292969 1.78503906 0.62585937 2.57007813 -0.08203125 3.37890625 C-0.99263871 4.43971701 -1.9027696 5.50093699 -2.8125 6.5625 C-3.26431641 7.07619141 -3.71613281 7.58988281 -4.18164062 8.11914062 C-6.55755373 10.91127209 -8.29391211 13.41231446 -9.63671875 16.83984375 C-10.08660156 17.88269531 -10.53648438 18.92554688 -11 20 C-11.99 20.33 -12.98 20.66 -14 21 C-12.6566358 16.1421046 -10.63352176 12.79121293 -7.5625 8.8125 C-6.38880859 7.27529297 -6.38880859 7.27529297 -5.19140625 5.70703125 C-3.5356588 3.66169616 -1.91617445 1.79294779 0 0 Z " fill="#A5999F" transform="translate(19,14)"/>
<path d="M0 0 C4.14298667 0.59834725 7.18194377 2.00664285 10.8125 4.0625 C11.78832031 4.61035156 12.76414062 5.15820312 13.76953125 5.72265625 C14.50558594 6.14417969 15.24164063 6.56570312 16 7 C16 7.66 16 8.32 16 9 C14.68528432 8.71848913 13.37324233 8.42446661 12.0625 8.125 C11.33160156 7.96257813 10.60070312 7.80015625 9.84765625 7.6328125 C8 7 8 7 7 5 C5.11235097 4.31527335 5.11235097 4.31527335 2.9375 3.875 C2.20402344 3.70742187 1.47054687 3.53984375 0.71484375 3.3671875 C0.14894531 3.24601563 -0.41695313 3.12484375 -1 3 C-0.67 2.01 -0.34 1.02 0 0 Z " fill="#BAB1B7" transform="translate(76,3)"/>
<path d="M0 0 C0.33 0 0.66 0 1 0 C1 7.59 1 15.18 1 23 C0.34 23.33 -0.32 23.66 -1 24 C-0.67 16.08 -0.34 8.16 0 0 Z M-3 16 C-2.67 16 -2.34 16 -2 16 C-1.67 19.3 -1.34 22.6 -1 26 C-1.99 26 -2.98 26 -4 26 C-3.67 22.7 -3.34 19.4 -3 16 Z " fill="#FDF9FC" transform="translate(100,47)"/>
<path d="M0 0 C5.78898419 -0.20674944 10.42932723 0.40837921 16 2 C16 3.32 16 4.64 16 6 C14.35 5.67 12.7 5.34 11 5 C11 4.34 11 3.68 11 3 C7.04 3 3.08 3 -1 3 C-0.67 2.01 -0.34 1.02 0 0 Z " fill="#F59747" transform="translate(66,28)"/>
<path d="M0 0 C0.33 0 0.66 0 1 0 C1.33 3.63 1.66 7.26 2 11 C2.99 11 3.98 11 5 11 C5.33 10.34 5.66 9.68 6 9 C5.6875 11.375 5.6875 11.375 5 14 C4.01 14.66 3.02 15.32 2 16 C1.67 14.68 1.34 13.36 1 12 C0.34 12 -0.32 12 -1 12 C-2.36884358 7.48281619 -1.47075246 4.41225737 0 0 Z " fill="#E94B3C" transform="translate(87,67)"/>
<path d="M0 0 C0.33 0 0.66 0 1 0 C0.19860627 8.33449477 0.19860627 8.33449477 -3 11 C-7.40406661 11.48044363 -10.16615283 11.10650943 -14 9 C-13.38511719 8.97421875 -12.77023438 8.9484375 -12.13671875 8.921875 C-7.03484954 8.75034891 -7.03484954 8.75034891 -3.0625 5.9375 C-2.711875 5.298125 -2.36125 4.65875 -2 4 C-1.34 4 -0.68 4 0 4 C0 2.68 0 1.36 0 0 Z " fill="#FBB364" transform="translate(80,39)"/>
<path d="M0 0 C1.485 0.99 1.485 0.99 3 2 C3.2487793 4.61376953 3.2487793 4.61376953 3.07421875 7.8828125 C3.01943359 9.04941406 2.96464844 10.21601562 2.90820312 11.41796875 C2.83537109 12.64128906 2.76253906 13.86460938 2.6875 15.125 C2.62626953 16.35605469 2.56503906 17.58710937 2.50195312 18.85546875 C2.34831344 21.90462555 2.18040849 24.95232874 2 28 C1.67 28 1.34 28 1 28 C0.67 18.76 0.34 9.52 0 0 Z " fill="#81150B" transform="translate(93,41)"/>
<path d="M0 0 C4.29 0.33 8.58 0.66 13 1 C9 3 9 3 6 4 C6.33 5.65 6.66 7.3 7 9 C6.34 9 5.68 9 5 9 C1.125 2.25 1.125 2.25 0 0 Z " fill="#A85254" transform="translate(41,91)"/>
<path d="M0 0 C0.680625 0.5775 1.36125 1.155 2.0625 1.75 C2.0625 2.74 2.0625 3.73 2.0625 4.75 C1.155 4.440625 0.2475 4.13125 -0.6875 3.8125 C-5.79144162 1.92200577 -5.79144162 1.92200577 -10.9375 2.75 C-10.6075 1.76 -10.2775 0.77 -9.9375 -0.25 C-6.04947844 -1.08859288 -3.71452538 -1.5806491 0 0 Z " fill="#EE5C33" transform="translate(90.9375,16.25)"/>
<path d="M0 0 C1.32 0.33 2.64 0.66 4 1 C0.25558036 4.91462054 0.25558036 4.91462054 -2.953125 5.1328125 C-7.41455515 5.11763757 -11.60847604 4.90082543 -16 4 C-16 3.67 -16 3.34 -16 3 C-10.72 3 -5.44 3 0 3 C0 2.01 0 1.02 0 0 Z " fill="#D3B2BC" transform="translate(57,87)"/>
<path d="M0 0 C0.66 0 1.32 0 2 0 C2.66 1.32 3.32 2.64 4 4 C3.34 4 2.68 4 2 4 C1.67 6.97 1.34 9.94 1 13 C0.01 12.01 -0.98 11.02 -2 10 C-1.75 7.625 -1.75 7.625 -1 5 C-0.814375 4.071875 -0.62875 3.14375 -0.4375 2.1875 C-0.293125 1.465625 -0.14875 0.74375 0 0 Z " fill="#C4BBC0" transform="translate(11,79)"/>
<path d="M0 0 C0.66 0.33 1.32 0.66 2 1 C1.25 3.4375 1.25 3.4375 0 6 C-3.24908373 7.36251898 -6.51411151 7 -10 7 C-6.7 4.69 -3.4 2.38 0 0 Z " fill="#9F959B" transform="translate(32,5)"/>
<path d="M0 0 C0.99 0 1.98 0 3 0 C3 2.64 3 5.28 3 8 C1.02 8.99 1.02 8.99 -1 10 C-0.67 6.7 -0.34 3.4 0 0 Z " fill="#D1C6CC" transform="translate(3,57)"/>
<path d="M0 0 C0.33 0 0.66 0 1 0 C1 2.64 1 5.28 1 8 C1.66 8 2.32 8 3 8 C3.1953125 14.0546875 3.1953125 14.0546875 3 16 C2.34 16.66 1.68 17.32 1 18 C0.10395632 11.95170514 -0.11269443 6.1105424 0 0 Z " fill="#F1E5E8" transform="translate(97,53)"/>
<path d="M0 0 C0.33 0 0.66 0 1 0 C1 4.62 1 9.24 1 14 C0.34 14 -0.32 14 -1 14 C-1.22142255 12.04310341 -1.4267568 10.08438048 -1.625 8.125 C-1.74101563 7.03445312 -1.85703125 5.94390625 -1.9765625 4.8203125 C-1.98429687 3.88960937 -1.99203125 2.95890625 -2 2 C-1.34 1.34 -0.68 0.68 0 0 Z " fill="#E0D5D8" transform="translate(99,47)"/>
<path d="M0 0 C1.98 0 3.96 0 6 0 C6 0.66 6 1.32 6 2 C7.134375 2.12375 8.26875 2.2475 9.4375 2.375 C10.613125 2.58125 11.78875 2.7875 13 3 C13.33 3.66 13.66 4.32 14 5 C8.72250715 4.46148032 4.74354436 3.22656164 0 1 C0 0.67 0 0.34 0 0 Z " fill="#BD4145" transform="translate(48,94)"/>
<path d="M0 0 C3.57104439 1.87949705 5.54744301 3.17053157 7 7 C5.02 7 3.04 7 1 7 C0.67 4.69 0.34 2.38 0 0 Z " fill="#BD5742" transform="translate(94,21)"/>
<path d="M0 0 C0.99 0 1.98 0 3 0 C3.66 2.64 4.32 5.28 5 8 C4.01 8.33 3.02 8.66 2 9 C1.34 6.03 0.68 3.06 0 0 Z " fill="#FBF5F8" transform="translate(38,91)"/>
<path d="M0 0 C1 4 1 4 1 4 Z M-1 4 C-1 7 -1 7 -1 7 Z M-3 8 C-3 8.66 -3 9.32 -3 10 C-6 12 -6 12 -8.1875 11.625 C-8.785625 11.41875 -9.38375 11.2125 -10 11 C-7.74624683 8.74624683 -6.20799182 8 -3 8 Z " fill="#F48C3D" transform="translate(84,44)"/>
<path d="M0 0 C1.485 0.99 1.485 0.99 3 2 C3.40843923 4.71203652 3.13336867 7.2437142 3 10 C2.34 10 1.68 10 1 10 C-0.60725635 6.78548731 -0.05748185 3.56387464 0 0 Z " fill="#C0B5BD" transform="translate(11,62)"/>
<path d="M0 0 C0.66 0.33 1.32 0.66 2 1 C1.34 4.96 0.68 8.92 0 13 C-0.33 13 -0.66 13 -1 13 C-1.22151549 11.20991533 -1.42682213 9.41781838 -1.625 7.625 C-1.74101563 6.62726562 -1.85703125 5.62953125 -1.9765625 4.6015625 C-1.98429687 3.74304688 -1.99203125 2.88453125 -2 2 C-1.34 1.34 -0.68 0.68 0 0 Z " fill="#BD989A" transform="translate(95,28)"/>
<path d="M0 0 C0.99 0 1.98 0 3 0 C1.71700242 2.86207152 0.469364 5.0245088 -2 7 C-2.99 7 -3.98 7 -5 7 C-4.67 6.01 -4.34 5.02 -4 4 C-3.34 4 -2.68 4 -2 4 C-1.34 2.68 -0.68 1.36 0 0 Z " fill="#AFA4AC" transform="translate(96,96)"/>
<path d="M0 0 C2 2 2 2 2.125 5.125 C2.08375 6.07375 2.0425 7.0225 2 8 C0.02 8.99 0.02 8.99 -2 10 C-2.66 8.68 -3.32 7.36 -4 6 C-3.01 6 -2.02 6 -1 6 C-0.67 4.02 -0.34 2.04 0 0 Z " fill="#CBC0C8" transform="translate(20,70)"/>
<path d="M0 0 C0.99 0 1.98 0 3 0 C3 2.31 3 4.62 3 7 C2.01 7.33 1.02 7.66 0 8 C-1 7 -1 7 -1.125 4 C-1 1 -1 1 0 0 Z " fill="#B1A7AD" transform="translate(2,44)"/>
<path d="M0 0 C2.67927341 4.01891012 2.15601248 6.24161923 2 11 C1.01 11 0.02 11 -1 11 C-1.14285714 3.57142857 -1.14285714 3.57142857 0 0 Z " fill="#CAB5BB" transform="translate(96,32)"/>
<path d="M0 0 C-0.66 1.32 -1.32 2.64 -2 4 C-2.33 3.67 -2.66 3.34 -3 3 C-4.34747084 2.76924918 -5.70377565 2.58846937 -7.0625 2.4375 C-8.361875 2.293125 -9.66125 2.14875 -11 2 C-11 1.67 -11 1.34 -11 1 C-7.26562152 0.12132271 -3.83225427 -0.08912219 0 0 Z " fill="#A79FA4" transform="translate(54,0)"/>
<path d="M0 0 C0.99 0 1.98 0 3 0 C3.33 2.31 3.66 4.62 4 7 C3.01 6.67 2.02 6.34 1 6 C0.67 4.02 0.34 2.04 0 0 Z " fill="#E9E1E8" transform="translate(15,68)"/>
<path d="M0 0 C0.66 0.33 1.32 0.66 2 1 C-0.64 3.97 -3.28 6.94 -6 10 C-6.66 9.67 -7.32 9.34 -8 9 C-5.36 6.03 -2.72 3.06 0 0 Z " fill="#968B91" transform="translate(19,14)"/>
<path d="M0 0 C5.61 0 11.22 0 17 0 C16.01 0.99 15.02 1.98 14 3 C10.64453125 2.85546875 10.64453125 2.85546875 6.8125 2.1875 C5.54019531 1.97480469 4.26789062 1.76210937 2.95703125 1.54296875 C1.49330078 1.27419922 1.49330078 1.27419922 0 1 C0 0.67 0 0.34 0 0 Z " fill="#CD9E9C" transform="translate(51,103)"/>
<path d="M0 0 C2 3 2 3 2 5 C1.01 5 0.02 5 -1 5 C-1 4.34 -1 3.68 -1 3 C-3.31 3.33 -5.62 3.66 -8 4 C-5.33333333 2.66666667 -2.66666667 1.33333333 0 0 Z " fill="#A12B44" transform="translate(58,90)"/>
<path d="M0 0 C2 2 2 2 2 5 C2.99 5.33 3.98 5.66 5 6 C4.67 6.66 4.34 7.32 4 8 C2.68 8 1.36 8 0 8 C0 5.36 0 2.72 0 0 Z " fill="#DB2F36" transform="translate(66,75)"/>
<path d="M0 0 C0.33 0 0.66 0 1 0 C1.33 3.3 1.66 6.6 2 10 C1.01 10 0.02 10 -1 10 C-0.67 6.7 -0.34 3.4 0 0 Z " fill="#FAF0F3" transform="translate(97,63)"/>
<path d="M0 0 C0.33 0.66 0.66 1.32 1 2 C3.12576782 2.46651207 3.12576782 2.46651207 5.5625 2.625 C6.38878906 2.69976562 7.21507813 2.77453125 8.06640625 2.8515625 C8.70449219 2.90054688 9.34257813 2.94953125 10 3 C10 3.33 10 3.66 10 4 C5.545 4.495 5.545 4.495 1 5 C0.67 3.35 0.34 1.7 0 0 Z " fill="#F3A85C" transform="translate(65,47)"/>
<path d="M0 0 C0.33 0.99 0.66 1.98 1 3 C-0.32 4.32 -1.64 5.64 -3 7 C-3.33 5.35 -3.66 3.7 -4 2 C-2.68 2 -1.36 2 0 2 C0 1.34 0 0.68 0 0 Z " fill="#C1504C" transform="translate(92,76)"/>
<path d="M0 0 C-0.33 0.66 -0.66 1.32 -1 2 C-3.875 2.125 -3.875 2.125 -7 2 C-7.66 1.34 -8.32 0.68 -9 0 C-5.62182575 -0.84454356 -3.32534757 -1.10844919 0 0 Z " fill="#D72835" transform="translate(81,81)"/>
<path d="M0 0 C0.33 0 0.66 0 1 0 C1.25 6.625 1.25 6.625 -1 10 C-1.66 9.34 -2.32 8.68 -3 8 C-2.67 7.01 -2.34 6.02 -2 5 C-1.34 5 -0.68 5 0 5 C0 3.35 0 1.7 0 0 Z " fill="#93878E" transform="translate(115,54)"/>
<path d="M0 0 C1.485 0.99 1.485 0.99 3 2 C3.1875 5.125 3.1875 5.125 3 8 C2.01 8 1.02 8 0 8 C0 5.36 0 2.72 0 0 Z " fill="#832219" transform="translate(93,41)"/>
<path d="M0 0 C2 3 2 3 3 5.0625 C3.95925017 7.16194362 3.95925017 7.16194362 6 9 C4.35 8.67 2.7 8.34 1 8 C0.17361624 5.10765685 0 3.11257569 0 0 Z " fill="#DBBAB7" transform="translate(42,94)"/>
<path d="M0 0 C2.5 1.3125 2.5 1.3125 5 3 C5 3.99 5 4.98 5 6 C2.5625 5.1875 2.5625 5.1875 0 4 C-0.33 3.01 -0.66 2.02 -1 1 C-0.67 0.67 -0.34 0.34 0 0 Z " fill="#B44835" transform="translate(88,15)"/>
</svg>
